<svg width="100" height="100" viewBox="0 0 100 100" fill="none" xmlns="http://www.w3.org/2000/svg">
  <path fill-rule="evenodd" clip-rule="evenodd" d="M0 0H100V100H0V0ZM1 1V99H99V1H1Z" fill="#1E3A8A" fill-opacity="0.05"/>
  <path fill-rule="evenodd" clip-rule="evenodd" d="M10 0H11V100H10V0ZM20 0H21V100H20V0ZM30 0H31V100H30V0ZM40 0H41V100H40V0ZM50 0H51V100H50V0ZM60 0H61V100H60V0ZM70 0H71V100H70V0ZM80 0H81V100H80V0ZM90 0H91V100H90V0Z" fill="#1E3A8A" fill-opacity="0.05"/>
  <path fill-rule="evenodd" clip-rule="evenodd" d="M0 10H100V11H0V10ZM0 20H100V21H0V20ZM0 30H100V31H0V30ZM0 40H100V41H0V40ZM0 50H100V51H0V50ZM0 60H100V61H0V60ZM0 70H100V71H0V70ZM0 80H100V81H0V80ZM0 90H100V91H0V90Z" fill="#1E3A8A" fill-opacity="0.05"/>
</svg>
